<svg xmlns:xlink="http://www.w3.org/1999/xlink" xmlns="http://www.w3.org/2000/svg" width="48" height="48" viewBox="0 0 48 48">
  <path id="application_management_icon" d="M10.342,48.692a9.5,9.5,0,0,1-4.89-1.3,10.059,10.059,0,0,1-3.544-3.544,9.882,9.882,0,0,1,0-9.8A10.059,10.059,0,0,1,5.452,30.5a9.374,9.374,0,0,1,4.89-1.323h5.2V20.161h-5.2a9.5,9.5,0,0,1-4.89-1.3,10.117,10.117,0,0,1-3.544-3.521,9.539,9.539,0,0,1-1.3-4.912,9.42,9.42,0,0,1,1.3-4.89A9.875,9.875,0,0,1,5.452,2.015,9.374,9.374,0,0,1,10.342.692a9.415,9.415,0,0,1,4.912,1.323A9.875,9.875,0,0,1,18.8,5.537a9.3,9.3,0,0,1,1.323,4.89v5.159h9.017V10.426a9.421,9.421,0,0,1,1.3-4.89,9.934,9.934,0,0,1,3.522-3.521A9.416,9.416,0,0,1,38.873.692a9.3,9.3,0,0,1,4.89,1.323,9.7,9.7,0,0,1,3.522,3.521,9.3,9.3,0,0,1,1.323,4.89,9.415,9.415,0,0,1-1.323,4.912,9.934,9.934,0,0,1-3.522,3.521,9.421,9.421,0,0,1-4.89,1.3H33.714v9.017h5.159a9.3,9.3,0,0,1,4.89,1.323,9.878,9.878,0,0,1,3.522,3.544,9.737,9.737,0,0,1,0,9.8,9.878,9.878,0,0,1-3.522,3.544,9.421,9.421,0,0,1-4.89,1.3,9.541,9.541,0,0,1-4.912-1.3,10.121,10.121,0,0,1-3.522-3.544,9.5,9.5,0,0,1-1.3-4.89v-5.2H20.122v5.2a9.374,9.374,0,0,1-1.323,4.89,10.059,10.059,0,0,1-3.544,3.544A9.54,9.54,0,0,1,10.342,48.692Zm0-4.576a4.984,4.984,0,0,0,2.6-.7,5.23,5.23,0,0,0,1.884-1.862,4.94,4.94,0,0,0,.718-2.6v-5.2h-5.2a4.94,4.94,0,0,0-2.6.718,5.231,5.231,0,0,0-1.862,1.884,4.984,4.984,0,0,0-.7,2.6,5.061,5.061,0,0,0,.7,2.6A5.287,5.287,0,0,0,7.74,43.421,5.061,5.061,0,0,0,10.342,44.116Zm0-28.531h5.2V10.426a4.865,4.865,0,0,0-.718-2.6,5.229,5.229,0,0,0-1.884-1.862,4.984,4.984,0,0,0-2.6-.7,5.061,5.061,0,0,0-2.6.7A5.286,5.286,0,0,0,5.879,7.824a4.984,4.984,0,0,0-.7,2.6,5.1,5.1,0,0,0,.7,2.624A5.286,5.286,0,0,0,7.74,14.912,5.191,5.191,0,0,0,10.342,15.585Zm23.372,0h5.159a5.112,5.112,0,0,0,2.6-.673,5.287,5.287,0,0,0,1.862-1.862,5.1,5.1,0,0,0,.7-2.624,4.985,4.985,0,0,0-.7-2.6,5.287,5.287,0,0,0-1.862-1.862,4.984,4.984,0,0,0-2.6-.7,5.1,5.1,0,0,0-2.624.7,5.287,5.287,0,0,0-1.862,1.862,5.113,5.113,0,0,0-.673,2.6Zm5.159,28.531a4.983,4.983,0,0,0,2.6-.7,5.288,5.288,0,0,0,1.862-1.862,5.063,5.063,0,0,0,.7-2.6,4.985,4.985,0,0,0-.7-2.6,5.232,5.232,0,0,0-1.862-1.884,4.865,4.865,0,0,0-2.6-.718H33.714v5.2a5.193,5.193,0,0,0,.673,2.6,5.288,5.288,0,0,0,1.862,1.862A5.1,5.1,0,0,0,38.873,44.116ZM20.122,29.178h9.017V20.161H20.122Z" transform="translate(-0.607 -0.692)" fill="#f5ba84"/>
</svg>