<svg xmlns:xlink="http://www.w3.org/1999/xlink" xmlns="http://www.w3.org/2000/svg" width="45.6" height="48" viewBox="0 0 45.6 48">
  <path id="collaboration_and_productivity_icon" d="M42.6,4.4a5.986,5.986,0,0,0-5.486,8.412L32.422,18.09a9.438,9.438,0,0,0-10.267-.331L16.7,12.3l-.055.055A7.118,7.118,0,0,0,17.4,9.2a7.2,7.2,0,1,0-7.2,7.2,7.126,7.126,0,0,0,3.158-.758L13.3,15.7l5.458,5.455a9.378,9.378,0,0,0,1,11.09l-6.185,6.182A5.933,5.933,0,0,0,11.4,38a6.045,6.045,0,1,0,5.575,3.818l6.811-6.811A9.524,9.524,0,0,0,35.573,21.766l5.081-5.719A5.988,5.988,0,1,0,42.6,4.4ZM27,30.8A4.8,4.8,0,1,1,31.8,26,4.8,4.8,0,0,1,27,30.8Z" transform="translate(-3 -2)" fill="#f5ba84"/>
</svg>