<svg xmlns:xlink="http://www.w3.org/1999/xlink" xmlns="http://www.w3.org/2000/svg" width="48" height="48" viewBox="0 0 48 48">
  <path id="corporate-owned_icon" d="M14.192,24.2A11.616,11.616,0,0,1,16.4,18.92L7.832,10.376A23.712,23.712,0,0,0,2,24.2Zm4.728-7.8a11.616,11.616,0,0,1,5.28-2.184V2A23.712,23.712,0,0,0,10.376,7.832ZM27.8,2V14a11.616,11.616,0,0,1,5.4,2.4l8.544-8.544A23.712,23.712,0,0,0,27.8,2ZM16.4,33.2a11.616,11.616,0,0,1-2.184-5.28H2A23.712,23.712,0,0,0,7.736,41.744Zm7.8,4.608A11.616,11.616,0,0,1,18.92,35.6l-8.544,8.568A23.712,23.712,0,0,0,24.2,50ZM35.6,18.92a11.616,11.616,0,0,1,2.184,5.28h12a23.712,23.712,0,0,0-5.736-13.824ZM33.2,35.6a11.616,11.616,0,0,1-5.28,2.184v12a23.712,23.712,0,0,0,13.824-5.736Zm4.608-7.8A11.616,11.616,0,0,1,35.6,33.2l8.544,8.544A23.712,23.712,0,0,0,50,27.8Z" transform="translate(-2 -2)" fill="#f5ba84"/>
</svg>