<svg xmlns:xlink="http://www.w3.org/1999/xlink" xmlns="http://www.w3.org/2000/svg" width="48" height="48.396" viewBox="0 0 48 48.396">
  <path id="ıntegration_with_microsoft_icon" d="M50.031,9.775a1.2,1.2,0,0,0-1.81-1,14.1,14.1,0,0,1-6.4,2.175,10.654,10.654,0,0,1-3.123-.48,13.838,13.838,0,0,1-1.957-.749c-3.241-1.548-6.219-4.281-8.954-7a2.386,2.386,0,0,0-3.382,0c-2.735,2.718-5.712,5.451-8.954,7h0a13.7,13.7,0,0,1-1.955.749,10.666,10.666,0,0,1-3.123.48,14.125,14.125,0,0,1-6.4-2.175,1.2,1.2,0,0,0-1.81,1C2.008,13.5,1.969,21.5,3.823,27.809,7.212,39.348,14.676,47.131,25.408,50.32l.339.1.339-.034v0h.007l.346.034.339-.1c10.732-3.188,18.2-10.972,21.585-22.511C50.218,21.5,50.176,13.5,50.031,9.775Z" transform="translate(-2.093 -2.023)" fill="#f5ba84"/>
</svg>