<svg xmlns:xlink="http://www.w3.org/1999/xlink" xmlns="http://www.w3.org/2000/svg" width="48" height="48.005" viewBox="0 0 48 48.005">
  <path id="self-service_icon" d="M4.475,45.388l10.667,5.333a2.669,2.669,0,0,0,2.384,0L27,45.983l9.475,4.736a2.64,2.64,0,0,0,2.384,0l10.667-5.333A2.67,2.67,0,0,0,51,43V29.668a2.67,2.67,0,0,0-1.475-2.387l-9.192-4.595V11a2.67,2.67,0,0,0-1.475-2.387L28.192,3.281a2.667,2.667,0,0,0-2.387,0L15.139,8.615A2.672,2.672,0,0,0,13.667,11V22.687l-9.192,4.6A2.661,2.661,0,0,0,3,29.668V43A2.67,2.67,0,0,0,4.475,45.388ZM16.333,27.316l6.037,3.019L14.6,34.22,8.565,31.2ZM27,20.649l8-4v6.037l-8,4Zm16.7,9.685-7.685,3.843-6.037-3.019,7.685-3.843ZM16.333,45.353l-.165-.083V39.4l8.165-4.085v6.037Zm21.333,0V39.316l8-4v6.037ZM27,8.649l6.037,3.019-7.685,3.843-6.037-3.019Z" transform="translate(-3 -2.999)" fill="#f5ba84"/>
</svg>