<svg xmlns:xlink="http://www.w3.org/1999/xlink" xmlns="http://www.w3.org/2000/svg" width="48" height="48" viewBox="0 0 48 48">
  <path id="supporting_remote_work_icon" d="M21.667,3h-16A2.667,2.667,0,0,0,3,5.667v16a2.667,2.667,0,0,0,2.667,2.667h16a2.667,2.667,0,0,0,2.667-2.667v-16A2.667,2.667,0,0,0,21.667,3ZM48.333,29.667h-16a2.667,2.667,0,0,0-2.667,2.667v16A2.667,2.667,0,0,0,32.333,51h16A2.667,2.667,0,0,0,51,48.333v-16A2.667,2.667,0,0,0,48.333,29.667ZM40.333,3A10.667,10.667,0,1,0,51,13.667,10.677,10.677,0,0,0,40.333,3ZM13.667,29.667A10.667,10.667,0,1,0,24.333,40.333,10.677,10.677,0,0,0,13.667,29.667Z" transform="translate(-3 -3)" fill="#f5ba84"/>
</svg>